<?xml version="1.0" encoding="UTF-8"?>
<svg width="25px" height="24px" viewBox="0 0 25 24" version="1.1" xmlns="http://www.w3.org/2000/svg" xmlns:xlink="http://www.w3.org/1999/xlink">
    <!-- Generator: sketchtool 61.2 (101010) - https://sketch.com -->
    <title>859EDE67-BD84-47F6-8B50-94262D97EA79</title>
    <desc>Created with sketchtool.</desc>
    <g id="Asset-Artboard-Page" stroke="none" stroke-width="1" fill="none" fill-rule="evenodd">
        <g id="icons-/-Google-Play-icons-/-App-Store-/-M-01" transform="translate(0.910313, 0.000000)" fill="#FFFFFF" fill-rule="nonzero">
            <path d="M15.0333916,3.54136916 C15.7448204,2.62299896 16.2841293,1.32496714 16.0890601,1.24344979e-14 C14.9262948,0.0808063969 13.5671855,0.824737605 12.7741591,1.79441346 C12.0512557,2.67302169 11.4571236,3.98003226 11.6891666,5.24856289 C12.9603036,5.28832485 14.2722396,4.52643662 15.0333916,3.54136916 L15.0333916,3.54136916 Z M21.3164039,16.0047824 C20.8076942,17.138636 20.5629013,17.6452789 19.9075709,18.6495863 C18.9934231,20.0515119 17.7044368,21.7971847 16.1056347,21.8100114 C14.6866019,21.825403 14.3206881,20.880097 12.3942207,20.8916412 C10.4677534,20.9019019 10.06614,21.8279684 8.64455767,21.8140188 C7.04703028,21.7997501 5.82561701,20.224668 4.9114692,18.8227428 C2.35389547,14.9055599 2.08487863,10.3072952 3.66200674,7.86130064 C4.78397307,6.12460616 6.55362035,5.10875549 8.21617034,5.10875549 C9.90804473,5.10875549 10.9726379,6.04251728 12.373821,6.04251728 C13.7329307,6.04251728 14.560381,5.10619007 16.5174475,5.10619007 C17.9989529,5.10619007 19.5684311,5.91810103 20.685298,7.31874418 C17.0236072,9.33761935 17.6164645,14.5977264 21.3164039,16.0047824 L21.3164039,16.0047824 Z" id="Icon"></path>
        </g>
    </g>
</svg>