<?xml version="1.0" encoding="UTF-8"?>
<svg width="185px" height="56px" viewBox="0 0 185 56" version="1.1" xmlns="http://www.w3.org/2000/svg" xmlns:xlink="http://www.w3.org/1999/xlink">
    <!-- Generator: sketchtool 61.2 (101010) - https://sketch.com -->
    <title>FE7E5401-8C38-4C67-A510-779B14E4E29B</title>
    <desc>Created with sketchtool.</desc>
    <g id="Asset-Artboard-Page" stroke="none" stroke-width="1" fill="none" fill-rule="evenodd">
        <g id="BTN-/-Apple-/-Disable-BTN-/-Google-/-Normal" transform="translate(0.910313, 0.000000)">
            <rect id="Rectangle" fill="#FFFFFF" fill-rule="nonzero" x="0" y="0" width="184" height="56" rx="28"></rect>
            <text id="Google-Play" font-family="Montserrat-Medium, Montserrat Medium" font-size="18" font-weight="normal" line-spacing="30" letter-spacing="-1" fill="#F45D5D">
                <tspan x="28.14" y="30">Google Play</tspan>
            </text>
            <path d="M137.127176,18.0907212 L143.156145,24.1606345 L147.063951,28.0917694 C147.193197,28.212264 147.208403,28.2800422 147.063951,28.4155986 C143.865733,31.5635189 140.672585,34.7164598 137.484504,37.8744213 C137.422588,37.9536335 137.327147,38 137.226011,38 C137.124876,38 137.029434,37.9536335 136.967518,37.8744213 C136.658837,37.6342267 136.486138,37.2612447 136.503751,36.8728103 L136.503751,19.0622086 C136.476935,18.7080737 136.594709,18.3580915 136.830669,18.0907212 C136.937107,17.9852885 137.005532,17.9551648 137.127176,18.0907212 Z M147.528986,29.4553543 C148.265444,30.1776405 149.001903,30.8999267 149.738362,31.6583272 C149.86356,31.7883387 149.878289,31.8388987 149.701539,31.9327959 L138.654656,37.8772113 L138.5,38 C141.37219,35.1541924 144.241924,32.3059771 147.109204,29.4553543 C147.285954,29.2820056 147.366965,29.3036742 147.528986,29.4553543 Z M151.111853,25.3839761 C152.234841,26.039651 153.372902,26.6798982 154.495889,27.3278592 C154.865912,27.4692197 155.125777,27.8128861 155.166667,28.2149487 C155.160894,28.524315 155.00926,28.8117131 154.759678,28.9863308 C154.578532,29.1163411 154.389756,29.2348427 154.194416,29.3411666 L150.772696,31.2696221 C150.719379,31.3177882 150.648467,31.3402912 150.577879,31.3314448 C150.50729,31.3225983 150.443778,31.2832487 150.403392,31.2233391 C149.559267,30.3593911 148.732728,29.5031569 147.923775,28.6546365 C147.803186,28.5312154 147.803186,28.4695048 147.923775,28.3383698 C148.880952,27.3741421 149.830593,26.4099144 150.780233,25.4302591 C150.817709,25.3784037 150.874063,25.3442419 150.936505,25.3355271 C150.998946,25.3268124 151.06218,25.3442839 151.111853,25.3839761 Z M137.833333,18 C138.033319,17.9978052 138.229522,18.0552915 138.397392,18.1653297 C142.385382,20.4189515 146.373373,22.6725732 150.361363,24.926195 C150.539487,25.031364 150.539487,25.0839485 150.398472,25.2266779 C149.507854,26.1131025 148.624658,27.0070391 147.734039,27.9084878 C147.644978,27.9986327 147.585603,28.0587292 147.459432,27.9084878 C144.263102,24.6582644 141.089038,21.3980249 137.937239,18.1277693 C137.898064,18.0892027 137.863218,18.0463746 137.833333,18 Z" id="Icon" fill="#F45D5D"></path>
        </g>
    </g>
</svg>