<?xml version="1.0" encoding="UTF-8"?>
<svg width="25px" height="24px" viewBox="0 0 25 24" version="1.1" xmlns="http://www.w3.org/2000/svg" xmlns:xlink="http://www.w3.org/1999/xlink">
    <!-- Generator: sketchtool 61.2 (101010) - https://sketch.com -->
    <title>2BE1811A-96EE-4AF3-A3DD-5446E06B20E7</title>
    <desc>Created with sketchtool.</desc>
    <g id="Asset-Artboard-Page" stroke="none" stroke-width="1" fill="none" fill-rule="evenodd">
        <g id="icons-/-Google-Play-icons-/-Google-Play-/-M-01" transform="translate(0.910313, 0.000000)" fill="#F45D5D">
            <path d="M2.67197394,2.09075151 L9.13158365,8.16066481 L13.3185186,12.0917997 C13.456997,12.2122943 13.4732885,12.2800725 13.3185186,12.4156289 C9.89185718,15.5635491 6.47062631,18.7164901 3.05482597,21.8744516 C2.98848747,21.9536638 2.8862288,22.0000303 2.77786919,22.0000303 C2.66950957,22.0000303 2.5672509,21.9536638 2.5009124,21.8744516 C2.1701824,21.634257 1.98514833,21.261275 2.00401935,20.8728406 L2.00401935,3.06223887 C1.97528779,2.70810395 2.10147354,2.35812178 2.35428822,2.09075151 C2.46832925,1.98531877 2.54164134,1.95519513 2.67197394,2.09075151 Z M13.8167703,13.4553845 C14.6058334,14.1776707 15.3948964,14.8999569 16.1839595,15.6583575 C16.3181002,15.788369 16.3338815,15.838929 16.1445063,15.9328262 L4.30856039,21.8772416 L4.14285714,22.0000303 C7.22020309,19.1542227 10.2949188,16.3060074 13.3670044,13.4553845 C13.5563795,13.2820359 13.6431764,13.3037044 13.8167703,13.4553845 Z M17.6555572,9.38400642 C18.8587579,10.0396813 20.0781089,10.6799285 21.2813096,11.3278895 C21.6777626,11.46925 21.9561896,11.8129163 22,12.214979 C21.9938148,12.5243453 21.8313497,12.8117434 21.5639407,12.9863611 C21.3698558,13.1163714 21.1675958,13.234873 20.9583027,13.3411969 L17.2921744,15.2696524 C17.2350491,15.3178185 17.159072,15.3403215 17.0834416,15.3314751 C17.0078111,15.3226286 16.9397626,15.283279 16.896491,15.2233694 C15.9920716,14.3594214 15.1064944,13.5031872 14.2397592,12.6546668 C14.1105565,12.5312457 14.1105565,12.4695351 14.2397592,12.3384001 C15.2653061,11.3741724 16.2827779,10.4099447 17.3002496,9.43028935 C17.3404026,9.37843397 17.400782,9.34427217 17.4676837,9.33555744 C17.5345855,9.32684271 17.6023356,9.34431417 17.6555572,9.38400642 Z M3.42857143,2.00003029 C3.64284198,1.99783547 3.85305952,2.05532176 4.03291952,2.16535999 C8.30576653,4.41898176 12.5786135,6.67260352 16.8514605,8.92622529 C17.0423073,9.0313943 17.0423073,9.08397881 16.8912203,9.22670819 C15.9369865,10.1131328 14.9907046,11.0070694 14.0364708,11.9085181 C13.9410474,11.998663 13.8774318,12.0587595 13.7422487,11.9085181 C10.3176095,8.6582947 6.91682618,5.39805521 3.53989871,2.12779963 C3.49792582,2.08923299 3.46059038,2.04640493 3.42857143,2.00003029 Z" id="Icon"></path>
        </g>
    </g>
</svg>