<?xml version="1.0" encoding="UTF-8"?>
<svg width="192px" height="192px" viewBox="0 0 192 192" version="1.1" xmlns="http://www.w3.org/2000/svg" xmlns:xlink="http://www.w3.org/1999/xlink">
    <!-- Generator: sketchtool 61.2 (101010) - https://sketch.com -->
    <title>90195CE2-AF76-4921-9C90-0BBBC331FDCE</title>
    <desc>Created with sketchtool.</desc>
    <defs>
        <linearGradient x1="17.8823791%" y1="82.212848%" x2="82.279606%" y2="22.068344%" id="linearGradient-1">
            <stop stop-color="#EE5156" offset="0%"></stop>
            <stop stop-color="#FF7469" offset="41.9010856%"></stop>
            <stop stop-color="#F2A378" offset="100%"></stop>
        </linearGradient>
    </defs>
    <g id="Asset-Artboard-Page" stroke="none" stroke-width="1" fill="none" fill-rule="evenodd">
        <g id="Feature-Icone-Feature-/-Icone-/-SVG-001" fill="url(#linearGradient-1)">
            <path d="M160.654359,43.3230422 C161.017412,43.3230422 161.357992,43.4225891 161.653626,43.5958861 C166.450866,49.5895878 170.388269,56.1869011 173.398097,63.3028393 C177.77895,73.659985 180,84.6609409 180,96.0001029 C180,107.339107 177.77895,118.340062 173.398097,128.697208 C169.167277,138.700163 163.110903,147.683278 155.397051,155.396972 C147.683198,163.110824 138.700084,169.167356 128.697129,173.398176 C118.339983,177.778871 107.339186,180.000079 96.0000237,180.000079 C84.66102,180.000079 73.6600642,177.778871 63.3029184,173.398176 C62.014032,172.853122 60.7431875,172.275781 59.4888022,171.669954 C59.0224038,171.303577 58.721231,170.727345 58.721231,170.078787 C58.721231,169.735992 58.8055847,169.413453 58.9535598,169.131114 C59.0318995,169.017482 59.1069157,168.901317 59.1833563,168.786261 C59.5421365,168.351198 60.0778536,168.07424 60.6773504,168.07424 C60.8371951,168.07424 60.9926085,168.094181 61.1413749,168.131214 C71.343582,173.081652 82.7466818,175.931319 94.785204,176.111263 C140.231428,176.790366 177.099056,139.655275 176.100739,94.2152231 C175.703184,76.1239674 169.276478,59.4942622 158.758538,46.2532647 C158.663264,46.0070089 158.609296,45.738913 158.609296,45.4570482 C158.609296,44.9642201 158.77104,44.5117487 159.039928,44.1504364 C159.188852,44.0056266 159.336352,43.8595507 159.481162,43.7107843 C159.813513,43.467219 160.217397,43.3230422 160.654359,43.3230422 Z M40.0820721,158.602428 C41.0674118,158.602428 41.9250341,159.401335 41.9250341,160.386675 L41.9250341,160.386675 L41.9250341,163.241406 C41.9250341,164.226746 41.0674118,165.025653 40.0820721,165.025653 C39.0965741,165.025653 38.2391101,164.226746 38.2391101,163.241406 L38.2391101,163.241406 L38.2391101,160.386675 C38.2391101,159.401335 39.0965741,158.602428 40.0820721,158.602428 Z M36.1762904,154.522083 C37.1617884,154.522083 37.9605372,155.282691 37.9605372,156.26803 C37.9605372,157.253528 37.1617884,158.013819 36.1762904,158.013819 L36.1762904,158.013819 L33.3215589,158.013819 C32.3362191,158.013819 31.5373121,157.253528 31.5373121,156.26803 C31.5373121,155.282691 32.3362191,154.522083 33.3215589,154.522083 L33.3215589,154.522083 Z M47.2382563,154.522083 C48.2237543,154.522083 49.0225031,155.282691 49.0225031,156.26803 C49.0225031,157.253528 48.2237543,158.013819 47.2382563,158.013819 L47.2382563,158.013819 L44.0268021,158.013819 C43.041304,158.013819 42.2425553,157.253528 42.2425553,156.26803 C42.2425553,155.282691 43.041304,154.522083 44.0268021,154.522083 L44.0268021,154.522083 Z M40.0820721,147.540478 C41.0674118,147.540478 41.9250341,148.339385 41.9250341,149.324566 L41.9250341,149.324566 L41.9250341,152.536179 C41.9250341,153.521677 41.0674118,154.320426 40.0820721,154.320426 C39.0965741,154.320426 38.2391101,153.521677 38.2391101,152.536179 L38.2391101,152.536179 L38.2391101,149.324566 C38.2391101,148.339385 39.0965741,147.540478 40.0820721,147.540478 Z M12.3337747,88.4465067 C12.4350625,87.3055953 13.5123525,86.5242554 14.6304741,86.7730434 C14.6569039,86.7790574 14.6834919,86.7847548 14.71008,86.7906105 C15.6455672,86.9952434 16.2866869,87.8503334 16.2012253,88.8040208 C15.9888376,91.1747868 15.879795,93.5748314 15.879795,96.0000396 C15.879795,110.600983 19.8058026,124.30189 26.6574431,136.103177 C27.1295389,136.916645 26.9247478,137.944399 26.1885126,138.52981 C26.1601837,138.552283 26.1316965,138.575073 26.1033676,138.597704 C25.1981084,139.324602 23.8653834,139.084677 23.2832954,138.080346 C21.5356072,135.064978 19.971503,131.935504 18.6019029,128.697303 C14.2212084,118.339999 12,107.339043 12,96.0000396 C12,93.4640479 12.1118913,90.9451485 12.3337747,88.4465067 Z M115.24099,53.6132114 L115.24099,133.980123 L113.048585,133.980123 C111.467389,133.980123 110.7943,134.595446 109.679344,135.614654 C108.393939,136.786427 106.63818,138.386773 103.388742,138.386773 C100.126011,138.386773 98.3743665,136.783578 97.0949758,135.612913 C95.9752715,134.593705 95.3007585,133.980123 93.7290578,133.980123 C92.1521343,133.980123 91.4784126,134.594971 90.3625067,135.613388 C89.0802672,136.783736 87.3241911,138.386773 84.07238,138.386773 C80.8099654,138.386773 79.0578458,136.783578 77.7782969,135.612913 C76.6587509,134.593705 75.9845544,133.980123 74.4125371,133.980123 C72.8281753,133.980123 72.1550867,134.595446 71.0401303,135.614654 C69.75615,136.784844 67.998966,138.386773 64.7431984,138.386773 C61.4872725,138.386773 59.7300885,136.784844 58.4470578,135.615287 C57.3284614,134.595763 56.6533153,133.980123 55.0708527,133.980123 L55.0708527,133.980123 L52.878448,133.980123 L52.878448,53.6132114 L115.24099,53.6132114 Z M110.856181,58.0831658 L57.2632574,58.0831658 L57.2632574,129.780955 C59.1690494,130.28233 60.3780135,131.381302 61.3636698,132.277856 C62.4909706,133.303711 63.1651671,133.917293 64.7431984,133.917293 C66.3221792,133.917293 66.996534,133.302603 68.1141808,132.28387 C69.3995855,131.112256 71.1572442,129.510327 74.4125371,129.510327 C77.6619742,129.510327 79.4177338,131.110832 80.6999732,132.279755 C81.8182531,133.30197 82.4913418,133.917293 84.07238,133.917293 C85.6437643,133.917293 86.3157451,133.305768 87.4289606,132.292891 C88.7175305,131.11368 90.4696501,129.510327 93.7290578,129.510327 C96.9781784,129.510327 98.7337797,131.110673 100.015861,132.279122 C101.134774,133.30197 101.807704,133.917293 103.388742,133.917293 C104.960602,133.917293 105.634956,133.303711 106.751812,132.287194 C107.736518,131.386208 108.941368,130.28407 110.856181,129.780955 L110.856181,129.780955 L110.856181,58.0831658 Z M132.69782,67.8231843 C136.234978,67.8231843 139.113765,70.7776209 139.113765,74.4079949 L139.113765,74.4079949 L139.121679,113.417542 L132.29172,124.17699 L125.473631,113.415484 L125.477588,74.4079949 C125.477588,70.7776209 128.356217,67.8231843 131.897331,67.8231843 L131.897331,67.8231843 Z M76.8649031,108.143125 L80.3232462,110.284095 L72.8545418,122.992224 L69.3961987,122.990167 L64.7508899,115.078012 L68.209233,112.941157 L71.1274276,117.908846 L76.8649031,108.143125 Z M103.368485,113.495518 L103.368485,117.639927 L84.5879979,117.639927 L84.5879979,113.495518 L103.368485,113.495518 Z M135.078082,86.1228711 L129.514379,86.1228711 L129.51153,112.186896 L132.295677,116.580251 L135.083621,112.186896 L135.078082,86.1228711 Z M76.8649031,88.5755061 L80.3232462,90.7164756 L72.8545418,103.424605 L69.3961987,103.422706 L64.7508899,95.5103925 L68.209233,93.3735378 L71.1274276,98.3412264 L76.8649031,88.5755061 Z M103.368485,93.9278349 L103.368485,98.0722442 L84.5879979,98.0722442 L84.5879979,93.9278349 L103.368485,93.9278349 Z M76.8649031,69.0077919 L80.3232462,71.1487614 L72.8545418,83.8570486 L69.3961987,83.8549912 L64.7508899,75.9428365 L68.209233,73.8059818 L71.1274276,78.7736704 L76.8649031,69.0077919 Z M132.69782,71.9675936 L131.897331,71.9675936 C130.580274,71.9675936 129.515645,73.0600768 129.515645,74.4079949 L129.515645,74.4079949 L129.514853,81.9784618 L135.077291,81.9784618 L135.075708,74.4079949 C135.075708,73.0600768 134.011079,71.9675936 132.69782,71.9675936 L132.69782,71.9675936 Z M103.368485,74.3603106 L103.368485,78.5047198 L84.5879979,78.5047198 L84.5879979,74.3603106 L103.368485,74.3603106 Z M96.0000079,11.9999209 C97.7812477,11.9999209 99.5539413,12.0553126 101.317297,12.1651465 C102.493976,12.2382636 103.310925,13.343566 103.056123,14.4946061 C103.053274,14.5074254 103.050426,14.5202446 103.047577,14.5330638 C102.844527,15.4574727 102.009378,16.0987506 101.064553,16.0394024 C99.3896653,15.9338415 97.7010088,15.8797159 96.0000079,15.8797159 C71.1305454,15.8797159 48.8717743,27.2698383 34.1647951,45.1070832 C33.5564356,45.8450593 32.5000362,46.0026884 31.69195,45.4908688 C31.6647289,45.4736182 31.6373496,45.4563677 31.6099702,45.4392754 C30.631594,44.825535 30.4093941,43.5004065 31.1445215,42.6095493 C32.8591329,40.5310933 34.6789886,38.5271787 36.6029808,36.6030283 C44.3168332,28.8891759 53.2999474,22.8326442 63.3029026,18.6018238 C73.6600483,14.2211293 84.6610042,11.9999209 96.0000079,11.9999209 Z M143.039915,30.2275351 C144.025413,30.2275351 144.882877,31.0262838 144.882877,32.0116236 L144.882877,32.0116236 L144.882877,34.8665134 C144.882877,35.8518531 144.025413,36.6506019 143.039915,36.6506019 C142.054576,36.6506019 141.196953,35.8518531 141.196953,34.8665134 L141.196953,34.8665134 L141.196953,32.0116236 C141.196953,31.0262838 142.054576,30.2275351 143.039915,30.2275351 Z M139.134197,26.1472695 C140.119537,26.1472695 140.918444,26.9077188 140.918444,27.8930585 C140.918444,28.8783983 140.119537,29.6390059 139.134197,29.6390059 L139.134197,29.6390059 L136.279466,29.6390059 C135.294126,29.6390059 134.495377,28.8783983 134.495377,27.8930585 C134.495377,26.9077188 135.294126,26.1472695 136.279466,26.1472695 L136.279466,26.1472695 Z M150.196258,26.1472695 C151.181598,26.1472695 151.980346,26.9077188 151.980346,27.8930585 C151.980346,28.8783983 151.181598,29.6390059 150.196258,29.6390059 L150.196258,29.6390059 L146.984645,29.6390059 C145.999306,29.6390059 145.200399,28.8783983 145.200399,27.8930585 C145.200399,26.9077188 145.999306,26.1472695 146.984645,26.1472695 L146.984645,26.1472695 Z M143.039915,19.1656325 C144.025413,19.1656325 144.882877,19.9643812 144.882877,20.949721 L144.882877,20.949721 L144.882877,24.1613335 C144.882877,25.1466733 144.025413,25.945422 143.039915,25.945422 C142.054576,25.945422 141.196953,25.1466733 141.196953,24.1613335 L141.196953,24.1613335 L141.196953,20.949721 C141.196953,19.9643812 142.054576,19.1656325 143.039915,19.1656325 Z M125.184961,14.6331329 C127.822557,14.6331329 129.968274,16.7788503 129.968274,19.416288 C129.968274,22.0538839 127.822557,24.199443 125.184961,24.199443 C122.547523,24.199443 120.401806,22.0538839 120.401806,19.416288 C120.401806,16.7788503 122.547523,14.6331329 125.184961,14.6331329 Z M125.184961,18.2014682 C124.515038,18.2014682 123.970141,18.7463646 123.970141,19.416288 C123.970141,20.0862114 124.515038,20.631266 125.184961,20.631266 C125.854726,20.631266 126.399781,20.0862114 126.399781,19.416288 C126.399781,18.7463646 125.854726,18.2014682 125.184961,18.2014682 Z" id="Icone"></path>
        </g>
    </g>
</svg>