<?xml version="1.0" encoding="UTF-8"?>
<svg width="192px" height="192px" viewBox="0 0 192 192" version="1.1" xmlns="http://www.w3.org/2000/svg" xmlns:xlink="http://www.w3.org/1999/xlink">
    <!-- Generator: sketchtool 61.2 (101010) - https://sketch.com -->
    <title>5723DB1A-A1A6-4B3B-BE99-FD1941C77501</title>
    <desc>Created with sketchtool.</desc>
    <defs>
        <linearGradient x1="17.8823791%" y1="80.8896972%" x2="82.279606%" y2="23.2156438%" id="linearGradient-1">
            <stop stop-color="#EE5156" offset="0%"></stop>
            <stop stop-color="#FF7469" offset="41.9010856%"></stop>
            <stop stop-color="#F2A378" offset="100%"></stop>
        </linearGradient>
    </defs>
    <g id="Asset-Artboard-Page" stroke="none" stroke-width="1" fill="none" fill-rule="evenodd">
        <g id="Feature-Icone-Feature-/-Icone-/SVG-003" fill="url(#linearGradient-1)">
            <path d="M88.1149874,182.171041 C89.0998193,182.171041 89.9569995,182.969378 89.9569995,183.95421 L89.9569995,183.95421 L89.9569995,186.807628 C89.9569995,187.79246 89.0998193,188.590797 88.1149874,188.590797 C87.1299973,188.590797 86.2729753,187.79246 86.2729753,186.807628 L86.2729753,186.807628 L86.2729753,183.95421 C86.2729753,182.969378 87.1299973,182.171041 88.1149874,182.171041 Z M94.8719527,178.092799 C95.8569427,178.092799 96.6551216,178.852857 96.6551216,179.837689 C96.6551216,180.822679 95.8569427,181.582736 94.8719527,181.582736 L94.8719527,181.582736 L92.0186926,181.582736 C91.0337026,181.582736 90.2353655,180.822679 90.2353655,179.837689 C90.2353655,178.852857 91.0337026,178.092799 92.0186926,178.092799 L92.0186926,178.092799 Z M84.1723698,178.092799 C85.1572016,178.092799 85.9555387,178.852857 85.9555387,179.837689 C85.9555387,180.822679 85.1572016,181.582736 84.1723698,181.582736 L84.1723698,181.582736 L80.9624126,181.582736 C79.9774226,181.582736 79.1790855,180.822679 79.1790855,179.837689 C79.1790855,178.852857 79.9774226,178.092799 80.9624126,178.092799 L80.9624126,178.092799 Z M175.226266,114.570923 L175.383255,114.581188 C175.400338,114.582928 175.417422,114.584668 175.434347,114.586408 C176.599821,114.706626 177.388826,115.822115 177.096983,116.956585 C176.071973,120.937831 174.750058,124.846629 173.133928,128.667796 C168.90513,138.665437 162.85172,147.643921 155.142002,155.353955 C147.432126,163.063674 138.4538,169.116925 128.456001,173.345881 C123.33111,175.513429 118.048672,177.151388 112.645542,178.253432 C111.552515,178.476308 110.501563,177.737605 110.344332,176.633347 L110.344332,176.633347 L110.338796,176.594909 C110.19327,175.585401 110.869017,174.646125 111.868243,174.44144 C141.819565,168.306883 165.731396,145.397758 173.322321,115.997537 C173.560225,115.076293 174.436861,114.481377 175.383255,114.581188 Z M88.1149874,171.114777 C89.0998193,171.114777 89.9569995,171.913114 89.9569995,172.897946 L89.9569995,172.897946 L89.9569995,176.107903 C89.9569995,177.092735 89.0998193,177.89123 88.1149874,177.89123 C87.1299973,177.89123 86.2729753,177.092735 86.2729753,176.107903 L86.2729753,176.107903 L86.2729753,172.897946 C86.2729753,171.913114 87.1299973,171.114777 88.1149874,171.114777 Z M16.6127296,116.391422 C17.5567509,116.27247 18.4466745,116.846666 18.7057742,117.762056 C25.4243332,141.510013 42.8493403,160.807561 65.412683,170.087062 C66.3442081,170.470017 66.8265005,171.507365 66.4981177,172.459454 L66.4981177,172.459454 L66.4686961,172.545346 C66.1131063,173.589337 64.9547505,174.113547 63.9344862,173.695318 C63.6543485,173.580321 63.3745271,173.4639 63.0953385,173.345897 C53.0975393,169.116941 44.1190552,163.063689 36.4093371,155.353813 C28.6993026,147.643937 22.6460507,138.665295 18.4172529,128.667812 C17.0531042,125.442511 15.8990192,122.154413 14.9562633,118.813324 C14.6362641,117.679802 15.4050214,116.541377 16.5738172,116.396167 C16.586788,116.394744 16.5997588,116.393004 16.6127296,116.391422 Z M45.2486539,61.1525253 C54.1997727,59.6733793 63.4419437,57.7845458 68.0064005,70.2091505 C68.049742,70.2145287 69.1500456,70.348033 70.7628541,70.5437023 C79.5105528,72.1013058 78.5943713,69.4938582 82.7396498,75.7585974 L82.7396498,75.7585974 L68.7833832,74.0638514 L75.2781168,104.662448 L124.66318,104.662448 L127.21305,81.1591965 L113.062221,79.4408816 L115.576184,75.984321 L131.322421,77.8959325 L127.20957,115.812434 L74.0618669,115.812434 C69.0396356,115.887886 64.9732892,119.995834 64.9732892,125.037047 C64.9732892,125.863698 65.0958791,126.657448 65.3103719,127.414025 C73.7475622,121.187882 81.9182184,126.562223 84.1781434,134.265456 L84.1781434,134.265456 L107.400624,134.26514 C110.074982,135.368291 107.276294,125.964617 119.723835,124.732549 C129.036713,124.723375 134.806505,135.704108 128.507283,143.402121 C122.606359,149.96329 112.055402,149.243569 108.108798,137.999149 L108.108798,137.999149 L85.1554051,137.999059 C85.0926507,137.999056 85.031964,137.999053 84.9734053,137.999049 L84.2621372,137.998991 C82.1156277,147.144988 67.3765257,153.494354 61.6674747,139.233748 C60.7989055,136.352806 61.3575991,133.025163 62.5895089,130.762391 C58.6792866,122.954917 63.7254032,112.962179 73.0476134,112.129201 C73.0450826,112.117179 65.5739006,76.9220151 64.4051048,71.4154351 C62.4691335,64.9977354 58.2561538,62.2869959 45.9239265,64.7609391 C44.977058,64.6361347 44.2456313,63.8278323 44.2456313,62.8467968 C44.2456313,62.1164773 44.6510479,61.4812244 45.2486539,61.1525253 Z M72.6483658,128.466242 C62.9112481,128.724551 62.0679877,143.172917 72.6483658,143.798521 C82.391969,143.542269 83.212135,129.091372 72.6483658,128.466242 Z M119.723993,128.466242 C109.991305,128.722969 109.148835,143.174657 119.723835,143.798521 C129.476929,143.545116 130.287446,129.082197 119.723993,128.466242 Z M72.6483658,134.391415 C74.9427742,134.527292 74.8496058,137.819029 72.648524,137.875183 C70.3493703,137.736142 70.4534531,134.446778 72.6483658,134.391415 Z M119.723899,134.391479 C122.018307,134.527356 121.925139,137.819092 119.724057,137.875246 C117.430756,137.735573 117.534048,134.447316 119.723899,134.391479 Z M124.25808,108.395824 L76.0706012,108.395824 L76.8515384,112.075103 L123.858832,112.075103 L124.25808,108.395824 Z M97.9126725,97.3774602 L97.9126725,101.111153 L93.6758075,101.111153 L93.6758075,97.3774602 L97.9126725,97.3774602 Z M106.382606,97.3774602 L106.382606,101.111153 L102.145583,101.111153 L102.145583,97.3774602 L106.382606,97.3774602 Z M89.4387843,97.3774602 L89.4387843,101.111153 L85.2053992,101.111153 L85.2053992,97.3774602 L89.4387843,97.3774602 Z M80.9688506,97.3774602 L80.9688506,101.111153 L76.7318274,101.111153 L76.7318274,97.3774602 L80.9688506,97.3774602 Z M114.85254,97.3774602 L114.85254,101.111153 L110.615833,101.111153 L110.615833,97.3774602 L114.85254,97.3774602 Z M123.32279,97.3774602 L123.32279,101.111153 L119.089563,101.111153 L119.089563,97.3774602 L123.32279,97.3774602 Z M177.595726,94.3722835 C178.580716,94.3722835 179.437738,95.1706206 179.437738,96.1556106 L179.437738,96.1556106 L179.437738,99.0088707 C179.437738,99.9937026 178.580716,100.79204 177.595726,100.79204 C176.610736,100.79204 175.753714,99.9937026 175.753714,99.0088707 L175.753714,99.0088707 L175.753714,96.1556106 C175.753714,95.1706206 176.610736,94.3722835 177.595726,94.3722835 Z M13.7576347,89.1345472 C16.3938711,89.1345472 18.5384825,91.2791585 18.5384825,93.915395 C18.5384825,96.5514732 16.3938711,98.6962427 13.7576347,98.6962427 C11.1215564,98.6962427 8.97694505,96.5514732 8.97694505,93.915395 C8.97694505,91.2791585 11.1215564,89.1345472 13.7576347,89.1345472 Z M13.7576347,92.7010432 C13.0883729,92.7010432 12.5434411,93.2458168 12.5434411,93.915395 C12.5434411,94.5848149 13.0883729,95.1295886 13.7576347,95.1295886 C14.4272128,95.1295886 14.9719865,94.5848149 14.9719865,93.915395 C14.9719865,93.2458168 14.4272128,92.7010432 13.7576347,92.7010432 Z M173.692021,90.2940419 C174.676852,90.2940419 175.475348,91.0540993 175.475348,92.0390894 C175.475348,93.0239212 174.676852,93.7839786 173.692021,93.7839786 L173.692021,93.7839786 L170.83876,93.7839786 C169.85377,93.7839786 169.055433,93.0239212 169.055433,92.0390894 C169.055433,91.0540993 169.85377,90.2940419 170.83876,90.2940419 L170.83876,90.2940419 Z M184.748301,90.2940419 C185.733291,90.2940419 186.531469,91.0540993 186.531469,92.0390894 C186.531469,93.0239212 185.733291,93.7839786 184.748301,93.7839786 L184.748301,93.7839786 L181.538343,93.7839786 C180.553353,93.7839786 179.755174,93.0239212 179.755174,92.0390894 C179.755174,91.0540993 180.553353,90.2940419 181.538343,90.2940419 L181.538343,90.2940419 Z M177.595726,83.3160194 C178.580716,83.3160194 179.437738,84.1143564 179.437738,85.0991883 L179.437738,85.0991883 L179.437738,88.3091454 C179.437738,89.2939773 178.580716,90.0924725 177.595726,90.0924725 C176.610736,90.0924725 175.753714,89.2939773 175.753714,88.3091454 L175.753714,88.3091454 L175.753714,85.0991883 C175.753714,84.1143564 176.610736,83.3160194 177.595726,83.3160194 Z M106.9649,44.5877988 C108.031511,44.5877988 108.896126,45.4522553 108.896126,46.5188665 L108.896126,46.5188665 L108.896126,61.8078039 L118.528528,61.8078039 C116.062969,65.1443054 101.924162,84.4562478 99.2398386,88.3258177 C95.9194715,83.5571498 84.3963376,67.8564685 84.3963376,67.8564685 C84.3963376,67.8564685 80.118662,62.0360584 79.9509906,61.8078039 L79.9509906,61.8078039 L89.5837093,61.8078039 L89.5837093,46.5188665 C89.5837093,45.4522553 90.4483239,44.5877988 91.514777,44.5877988 L91.514777,44.5877988 L91.6658625,44.5935996 C92.66193,44.6704684 93.446161,45.5017733 93.446161,46.5174429 C93.446161,51.093871 93.446161,62.2826302 93.4459424,65.0499319 L93.4458446,65.6702556 L87.582884,65.6702556 C88.011395,66.2596362 98.830942,81.1365134 99.2399968,81.6991615 C99.5824576,81.2282581 110.49454,66.2238874 110.896951,65.6702556 L110.896951,65.6702556 L105.033833,65.6702556 L105.033833,46.5188665 C105.033833,45.4522553 105.898447,44.5877988 106.9649,44.5877988 Z M74.6113544,14.7210562 C75.6411095,14.7210562 76.4883243,15.5032588 76.5917744,16.5056487 L76.5917744,16.5056487 L76.5977852,16.8251733 C76.5552347,17.5864961 76.0857549,18.2326635 75.4239276,18.5290938 C49.7517051,25.2794472 29.0783031,44.4874649 20.2818848,69.270713 C20.2486669,69.2637531 20.2187708,69.2908019 20.1953601,69.3602432 C19.8464138,70.3963255 19.3092328,71.3395559 18.2160473,71.3395559 C17.12302,71.3395559 16.2367346,70.4534287 16.2367346,69.3602432 C16.2367346,69.1873519 16.2598289,69.0198387 16.3015886,68.8599182 C16.9404797,66.9902246 17.6429593,65.1379308 18.4172529,63.3069913 C22.6460507,53.3091921 28.6993026,44.3308662 36.4093371,36.6209899 C44.1190552,28.9111135 53.0975393,22.8578617 63.0953385,18.6290639 C66.8510184,17.0406152 70.6916413,15.7381569 74.6021799,14.7210562 L74.6021799,14.7210562 Z M121.766832,18.5789839 C121.896381,17.3568813 123.14838,16.5843277 124.304205,17.0020824 C125.698883,17.5062037 127.08312,18.0484465 128.455969,18.628969 C138.453768,22.857925 147.432094,28.9111768 155.14197,36.620895 C162.851689,44.3309295 168.905099,53.3092553 173.133896,63.3068964 C173.695121,64.6340309 174.220438,65.9717635 174.710165,67.3194615 C175.112102,68.4249851 174.433824,69.6159261 173.280846,69.8490842 C173.267084,69.8517733 173.253165,69.8546205 173.239403,69.8573096 C172.305189,70.0482335 171.372873,69.5403159 171.046388,68.6443814 C162.943592,46.4076814 145.25205,28.7414491 122.9989,20.6731357 C122.17035,20.372751 121.660692,19.5451505 121.757024,18.6691468 C121.760504,18.6390925 121.763668,18.6090382 121.766832,18.5789839 Z" id="Icone"></path>
        </g>
    </g>
</svg>