<?xml version="1.0" encoding="UTF-8"?>
<svg width="192px" height="192px" viewBox="0 0 192 192" version="1.1" xmlns="http://www.w3.org/2000/svg" xmlns:xlink="http://www.w3.org/1999/xlink">
    <!-- Generator: sketchtool 61.2 (101010) - https://sketch.com -->
    <title>9F46241B-F14C-4BEE-A378-40533B83C77A</title>
    <desc>Created with sketchtool.</desc>
    <defs>
        <linearGradient x1="17.8823791%" y1="82.212848%" x2="82.279606%" y2="22.068344%" id="linearGradient-1">
            <stop stop-color="#EE5156" offset="0%"></stop>
            <stop stop-color="#FF7469" offset="41.9010856%"></stop>
            <stop stop-color="#F2A378" offset="100%"></stop>
        </linearGradient>
    </defs>
    <g id="Asset-Artboard-Page" stroke="none" stroke-width="1" fill="none" fill-rule="evenodd">
        <g id="Feature-Icone-Feature-/-Icone-/SVG-002" fill="url(#linearGradient-1)">
            <path d="M14.5462124,75.4243503 C14.7213311,74.7316271 15.4721107,74.3573446 16.1327209,74.6295932 C16.578348,74.8134124 17.0309356,74.9833107 17.4903254,75.1389718 C18.0805401,75.3387684 18.4290373,75.9492316 18.2773311,76.5535254 C16.7110712,82.7940452 15.8780316,89.3223164 15.8780316,96.0416836 C15.8780316,140.200689 51.8039299,176.126588 95.9629356,176.126588 C111.558777,176.126588 126.127162,171.644373 138.449218,163.901977 C138.964292,163.578316 139.635659,163.703763 140.014845,164.179288 C140.318574,164.560056 140.634167,164.930701 140.960992,165.290746 C141.458981,165.83904 141.342077,166.702927 140.715794,167.09809 C136.885173,169.515107 132.857128,171.624282 128.645738,173.405684 C118.293173,177.784599 107.296924,180.004667 95.9629356,180.004667 C84.6287887,180.004667 73.6328565,177.784599 63.2801333,173.405684 C53.2817605,169.176734 44.3026192,163.122881 36.5921785,155.412599 C28.8817379,147.702158 22.8280429,138.722859 18.5990938,128.724486 C14.2201785,118.371763 11.9999525,107.375672 11.9999525,96.0416836 C11.9999525,89.0196949 12.8530825,82.1277401 14.5428904,75.4379548 L14.5428904,75.4379548 Z M157.539871,152.384391 C158.524933,152.384391 159.382018,153.182945 159.382018,154.167849 L159.382018,154.167849 L159.382018,157.021318 C159.382018,158.006221 158.524933,158.804775 157.539871,158.804775 C156.554809,158.804775 155.697724,158.006221 155.697724,157.021318 L155.697724,157.021318 L155.697724,154.167849 C155.697724,153.182945 156.554809,152.384391 157.539871,152.384391 Z M153.635896,148.305851 C154.620958,148.305851 155.419195,149.066122 155.419195,150.051026 C155.419195,151.03593 154.620958,151.796043 153.635896,151.796043 L153.635896,151.796043 L150.782427,151.796043 C149.797365,151.796043 148.998969,151.03593 148.998969,150.051026 C148.998969,149.066122 149.797365,148.305851 150.782427,148.305851 L150.782427,148.305851 Z M164.692969,148.305851 C165.678032,148.305851 166.476427,149.066122 166.476427,150.051026 C166.476427,151.03593 165.678032,151.796043 164.692969,151.796043 L164.692969,151.796043 L161.482777,151.796043 C160.497873,151.796043 159.699478,151.03593 159.699478,150.051026 C159.699478,149.066122 160.497873,148.305851 161.482777,148.305851 L161.482777,148.305851 Z M65.2078463,71.4680927 C70.3054282,71.4680927 73.8696542,75.1359345 73.8696542,80.3898102 C73.8696542,81.5852678 73.4915751,83.3241153 72.9111684,85.2893356 L72.9111684,85.2893356 L77.0488407,85.2893356 L86.1539028,94.3999345 L86.1573831,141.447211 L77.0488407,150.557968 L53.3633718,150.557968 L44.2546712,141.447211 L44.251191,94.3999345 L53.3633718,85.2893356 L57.4898124,85.2893356 C56.8534056,83.1478893 56.5425582,81.5332226 56.5425582,80.3898102 C56.5425582,75.1359345 60.1031458,71.4680927 65.2078463,71.4680927 Z M157.539871,141.327318 C158.524933,141.327318 159.382018,142.125871 159.382018,143.110617 L159.382018,143.110617 L159.382018,146.320809 C159.382018,147.305871 158.524933,148.104267 157.539871,148.104267 C156.554809,148.104267 155.697724,147.305871 155.697724,146.320809 L155.697724,146.320809 L155.697724,143.110617 C155.697724,142.125871 156.554809,141.327318 157.539871,141.327318 Z M67.7145582,89.0098554 L54.9040045,89.0098554 L47.9715525,95.9402508 L47.975191,139.906895 L54.9040045,146.83729 L75.5083661,146.83729 L82.4370215,139.906895 L82.4333831,95.9402508 L75.5083661,89.0098554 L71.6832814,89.0098554 C71.1400497,90.5264429 70.5474621,92.061539 69.9686373,93.5014034 C71.9284791,94.960409 73.2012927,97.2946915 73.2012927,99.920522 C73.2012927,104.329494 69.6115977,107.91555 65.2042079,107.91555 C60.7936542,107.91555 57.2075977,104.329494 57.2075977,99.920522 C57.2075977,95.5098102 60.7936542,91.9218554 65.2042079,91.9218554 C65.6601175,91.9218554 66.1065356,91.9623525 66.541722,92.0360701 C66.9463774,91.024748 67.3418576,90.0066237 67.7145582,89.0098554 L67.7145582,89.0098554 Z M67.5659209,136.517107 L67.5659209,140.237627 L63.8455593,140.237627 L63.8455593,136.517107 L67.5659209,136.517107 Z M166.103869,54.6121876 C166.964118,53.6228542 168.552841,53.7892723 169.195101,54.9322102 C170.722762,57.6515322 172.101722,60.4622893 173.32692,63.3589446 C177.705677,73.7115096 179.925903,84.7076 179.925903,96.0417469 C179.925903,107.375736 177.705677,118.371668 173.32692,128.724549 C173.126174,129.199284 172.920999,129.671487 172.711553,130.141476 C172.232863,131.215916 170.913067,131.595261 169.921677,130.962176 C169.910445,130.955058 169.899372,130.947939 169.888456,130.94082 C169.082626,130.428278 168.764502,129.413476 169.153338,128.541205 C173.583349,118.603894 176.047824,107.605431 176.047824,96.0417469 C176.047824,81.8273966 172.324298,68.466809 165.803146,56.8822441 C165.405609,56.1760746 165.50179,55.2984249 166.036321,54.6893853 C166.058942,54.6637582 166.081406,54.6379729 166.103869,54.6121876 Z M65.5975051,113.820355 C69.1750192,113.820355 71.243539,115.767225 72.387426,117.78718 L72.387426,117.78718 L69.3939571,119.247293 C68.7369853,117.933349 67.2768723,116.886592 65.5975051,116.886592 C63.6019119,116.886592 61.9959458,117.933349 61.1684429,119.563677 L61.1684429,119.563677 L67.0821379,119.563677 L67.0821379,121.388897 L60.5355164,121.388897 C60.511313,121.656716 60.511313,121.924377 60.511313,122.2164 C60.511313,122.459699 60.511313,122.72736 60.5355164,122.970818 L60.5355164,122.970818 L67.0821379,122.970818 L67.0821379,124.8204 L61.1440814,124.8204 C61.9472226,126.475247 63.5775503,127.545892 65.5975051,127.545892 C67.2768723,127.545892 68.7369853,126.523971 69.3939571,125.185349 L69.3939571,125.185349 L72.387426,126.621417 C71.2193356,128.641214 69.1750192,130.612445 65.5975051,130.612445 C61.6306802,130.612445 58.3940701,128.349033 57.3232678,124.8204 L57.3232678,124.8204 L56.0820927,124.8204 L56.0820927,122.970818 L57.0067254,122.970818 C56.982522,122.72736 56.9581605,122.459699 56.9581605,122.2164 C56.9581605,121.924377 56.982522,121.656716 57.0067254,121.388897 L57.0067254,121.388897 L56.0820927,121.388897 L56.0820927,119.563677 L57.3474712,119.563677 C58.4184316,116.059406 61.6550418,113.820355 65.5975051,113.820355 Z M146.918301,36.7789718 C147.998436,36.7055706 148.918798,37.5520565 148.918798,38.634565 C148.918798,39.6197853 148.150142,40.4241921 147.167295,40.4911073 C139.761374,40.994791 133.213171,44.6688023 128.869849,50.162339 C128.709125,50.365774 128.550933,50.5711073 128.396221,50.7792881 L128.396221,50.7792881 L136.623792,50.7792881 L147.683476,61.8427684 L147.683476,128.622452 L96.4795435,128.622452 L96.4795435,61.8427684 L107.542866,50.7792881 L123.915114,50.7792881 C124.897487,49.1695254 126.032041,47.6622712 127.296628,46.2758757 C132.23238,40.8644407 139.165623,37.3049605 146.918301,36.7789718 Z M121.996402,54.4998079 L109.083498,54.4998079 L100.200063,63.3832429 L100.200063,124.902249 L143.962956,124.902249 L143.962956,63.3832429 L141.836221,61.2557175 L135.083159,54.4998079 L126.09864,54.4998079 C125.421261,55.8403277 124.859521,57.2483955 124.424809,58.7108814 C127.694165,59.7147684 130.080176,62.7631299 130.080176,66.3588362 C130.080176,70.7678079 126.490481,74.3538644 122.083566,74.3538644 C117.672538,74.3538644 114.086481,70.7678079 114.086481,66.3588362 C114.086481,62.4480113 116.906572,59.1862486 120.620447,58.4966893 C120.984131,57.1224746 121.445103,55.7874915 121.996402,54.4998079 L121.996402,54.4998079 Z M116.502644,116.135006 L116.502644,119.855367 L112.782124,119.855367 L112.782124,116.135006 L116.502644,116.135006 Z M123.943684,116.135006 L123.943684,119.855367 L120.223164,119.855367 L120.223164,116.135006 L123.943684,116.135006 Z M138.825605,116.135006 L138.825605,119.855367 L135.105243,119.855367 L135.105243,116.135006 L138.825605,116.135006 Z M131.384565,116.135006 L131.384565,119.855367 L127.664203,119.855367 L127.664203,116.135006 L131.384565,116.135006 Z M109.061763,116.135006 L109.061763,119.855367 L105.341243,119.855367 L105.341243,116.135006 L109.061763,116.135006 Z M122.945697,84.1393107 C127.675008,84.1393107 130.288499,86.7547006 131.673313,89.0622486 L131.673313,89.0622486 L128.179008,90.7667684 C127.130036,88.9118079 125.063573,87.6837627 122.945697,87.6837627 C120.246624,87.6837627 117.921833,89.0899322 116.726533,91.4454124 L116.726533,91.4454124 L116.711031,91.4756271 L125.006307,91.4756271 L125.006307,94.1661582 L115.833381,94.1661582 C115.811867,94.486339 115.810601,94.8082599 115.810601,95.1463164 C115.810601,95.4408701 115.812025,95.7695932 115.836703,96.0809153 L115.836703,96.0809153 L125.006307,96.0809153 L125.006307,98.7954915 L116.700906,98.7954915 C117.868364,101.183401 120.200748,102.608712 122.945697,102.608712 C125.115144,102.608712 127.139528,101.407401 128.181855,99.5252316 L128.181855,99.5252316 L131.669991,101.198429 C129.667121,104.486452 126.733449,106.153164 122.945697,106.153164 C117.837042,106.153164 113.634353,103.27296 112.165223,98.7954915 L112.165223,98.7954915 L110.003211,98.7954915 L110.003211,96.0809153 L111.670398,96.0809153 C111.640974,95.7828814 111.611392,95.4479887 111.611392,95.1463164 C111.611392,94.8041469 111.636861,94.4907684 111.666127,94.1661582 L111.666127,94.1661582 L110.141788,94.1661582 L110.141788,91.4756271 L112.183889,91.4756271 C113.637991,87.0127119 117.838466,84.1393107 122.945697,84.1393107 Z M65.0490215,95.6464881 C62.7628294,95.7285898 60.9279593,97.6128158 60.9279593,99.920522 C60.9279593,102.276635 62.8463548,104.195189 65.2042079,104.195189 C67.5623774,104.195189 69.4806147,102.276635 69.4806147,99.920522 C69.4806147,98.8620588 69.0936768,97.892974 68.4550554,97.1453582 C67.6882983,98.9367254 67.0930215,100.252884 66.9009763,100.674624 L66.9009763,100.674624 L63.5148746,99.1303525 C63.9869198,98.0957763 64.5099028,96.9102847 65.0490215,95.6464881 Z M65.2078463,75.1887706 C62.8172475,75.1887706 60.263078,76.5547593 60.263078,80.3898102 C60.263078,80.9417424 60.4203209,82.2838441 61.3865582,85.2893356 L61.3865582,85.2893356 L69.0204339,85.2893356 C69.7052475,83.1692452 70.1491345,81.3978102 70.1491345,80.3898102 C70.1491345,77.132635 68.2998689,75.1887706 65.2078463,75.1887706 Z M123.625781,62.3697062 C123.457939,63.5498192 123.36951,64.7552429 123.36951,65.9810734 L123.36951,65.9810734 L119.64899,65.9810734 C119.64899,64.8802147 119.712108,63.7937514 119.831069,62.7242147 C118.617261,63.4795819 117.807001,64.8256384 117.807001,66.3588362 C117.807001,68.7149492 119.725238,70.6335028 122.083566,70.6335028 C124.441419,70.6335028 126.359656,68.7149492 126.359656,66.3588362 C126.359656,64.5432655 125.223521,62.9899774 123.625781,62.3697062 Z M24.5611164,55.9921921 C25.5460203,55.9921921 26.4032633,56.7905876 26.4032633,57.7754915 L26.4032633,57.7754915 L26.4032633,60.6289605 C26.4032633,61.6140226 25.5460203,62.4124181 24.5611164,62.4124181 C23.5760542,62.4124181 22.7189695,61.6140226 22.7189695,60.6289605 L22.7189695,60.6289605 L22.7189695,57.7754915 C22.7189695,56.7905876 23.5760542,55.9921921 24.5611164,55.9921921 Z M20.6570463,51.913652 C21.6421085,51.913652 22.440504,52.673765 22.440504,53.6586689 C22.440504,54.6437311 21.6421085,55.4038441 20.6570463,55.4038441 L20.6570463,55.4038441 L17.8035774,55.4038441 C16.8186734,55.4038441 16.020278,54.6437311 16.020278,53.6586689 C16.020278,52.673765 16.8186734,51.913652 17.8035774,51.913652 L17.8035774,51.913652 Z M31.7140565,51.913652 C32.6991186,51.913652 33.4975141,52.673765 33.4975141,53.6586689 C33.4975141,54.6437311 32.6991186,55.4038441 31.7140565,55.4038441 L31.7140565,55.4038441 L28.5040226,55.4038441 C27.5191186,55.4038441 26.7207232,54.6437311 26.7207232,53.6586689 C26.7207232,52.673765 27.5191186,51.913652 28.5040226,51.913652 L28.5040226,51.913652 Z M24.5611164,44.9350237 C25.5460203,44.9350237 26.4032633,45.7334192 26.4032633,46.7184814 L26.4032633,46.7184814 L26.4032633,49.9285153 C26.4032633,50.9135774 25.5460203,51.7119729 24.5611164,51.7119729 C23.5760542,51.7119729 22.7189695,50.9135774 22.7189695,49.9285153 L22.7189695,49.9285153 L22.7189695,46.7184814 C22.7189695,45.7334192 23.5760542,44.9350237 24.5611164,44.9350237 Z M47.9715367,24.274504 C50.6078079,24.274504 52.7525763,26.4192723 52.7525763,29.0555435 C52.7525763,31.6919729 50.6078079,33.8367412 47.9715367,33.8367412 C45.3351073,33.8367412 43.190339,31.6919729 43.190339,29.0555435 C43.190339,26.4192723 45.3351073,24.274504 47.9715367,24.274504 Z M47.9715367,27.841261 C47.3019096,27.841261 46.7572542,28.3860746 46.7572542,29.0555435 C46.7572542,29.7251706 47.3019096,30.2699842 47.9715367,30.2699842 C48.6410056,30.2699842 49.1858192,29.7251706 49.1858192,29.0555435 C49.1858192,28.3860746 48.6410056,27.841261 47.9715367,27.841261 Z M95.9628249,12.0786847 C107.296814,12.0786847 118.293062,14.2990689 128.645785,18.6776678 C130.005605,19.2530124 131.34565,19.8637921 132.666554,20.5076339 C133.837017,21.0782328 134.095503,22.6438599 133.16391,23.5540972 C133.135435,23.581939 133.10696,23.609939 133.078486,23.637939 C132.506463,24.2030011 131.642576,24.3493288 130.919797,23.9971932 C120.350983,18.8481989 108.488475,15.956922 95.9628249,15.956922 C87.1156158,15.956922 78.5995028,17.4001085 70.6359548,20.0615322 C69.7254011,20.3658938 68.7419209,19.9435209 68.3185989,19.0818486 C68.3094237,19.0633401 68.3004068,19.0448316 68.2912316,19.0263232 C67.7771073,17.9868429 68.2872768,16.7372836 69.3871864,16.3698034 C77.9200678,13.5199729 86.831661,12.0786847 95.9628249,12.0786847 Z" id="Icone"></path>
        </g>
    </g>
</svg>